<?xml version="1.0" encoding="utf-8"?>
<!-- Generator: Adobe Illustrator 14.0.0, SVG Export Plug-In . SVG Version: 6.00 Build 43363)  -->
<!DOCTYPE svg PUBLIC "-//W3C//DTD SVG 1.1//EN" "http://www.w3.org/Graphics/SVG/1.1/DTD/svg11.dtd">
<svg version="1.1" id="Layer_1" xmlns="http://www.w3.org/2000/svg" xmlns:xlink="http://www.w3.org/1999/xlink" x="0px" y="0px"
	 width="802.639px" height="590.686px" viewBox="0 0 802.639 590.686" enable-background="new 0 0 802.639 590.686"
	 xml:space="preserve">
<polygon fill="#009F68" points="802.639,84.215 711.29,84.215 711.29,18.78 348.442,18.78 348.442,21.466 348.442,132.035 
	348.442,271.059 11.546,271.059 11.546,384.314 348.442,384.314 348.442,384.314 461.701,384.314 461.701,384.314 461.701,271.059 
	461.701,132.035 711.29,132.035 711.29,99.22 802.639,99.22 "/>
<line fill="none" stroke="#FFFFFF" stroke-width="4" x1="558.088" y1="91.719" x2="700.978" y2="91.719"/>
<rect x="558.088" y="40.9" fill="#FFFFFF" width="45.688" height="26.377"/>
<polygon fill="#86CCA9" points="89.186,18.78 89.186,122.968 11.546,122.968 11.546,256.646 89.186,256.646 256.226,256.646 
	333.864,256.646 333.864,138.857 333.864,122.968 333.864,18.78 "/>
<line fill="none" stroke="#FFFFFF" stroke-width="4" x1="-2.003" y1="227.675" x2="133.886" y2="227.675"/>
<rect x="209.259" fill="#86CCA9" stroke="#FFFFFF" stroke-width="3" width="93.929" height="127.172"/>
<rect x="121.981" y="63.585" fill="#FFFFFF" width="48.446" height="27.967"/>
<rect y="111.568" fill="#86CCA9" stroke="#FFFFFF" stroke-width="3" width="33.395" height="45.211"/>
<text transform="matrix(1 0 0 1 16.6973 562.8965)"><tspan x="0" y="0" fill="#86CCA9" font-family="'DimitriSwank'" font-size="197.6122">Pu</tspan><tspan x="213.418" y="0" fill="#86CCA9" font-family="'DimitriSwank'" font-size="46.2851"> </tspan><tspan x="229.248" y="0" fill="#009F68" font-family="'DimitriSwank'" font-size="197.6122">Py</tspan></text>
<line fill="none" stroke="#FFFFFF" stroke-width="2" x1="780.88" y1="91.719" x2="812.881" y2="91.719"/>
</svg>
